<?xml version="1.0" encoding="UTF-8" standalone="no"?>
<svg
   xmlns:dc="http://purl.org/dc/elements/1.1/"
   xmlns:cc="http://creativecommons.org/ns#"
   xmlns:rdf="http://www.w3.org/1999/02/22-rdf-syntax-ns#"
   xmlns:svg="http://www.w3.org/2000/svg"
   xmlns="http://www.w3.org/2000/svg"
   xmlns:sodipodi="http://sodipodi.sourceforge.net/DTD/sodipodi-0.dtd"
   xmlns:inkscape="http://www.inkscape.org/namespaces/inkscape"
   version="1.0"
   width="1260.000000pt"
   height="231.000000pt"
   viewBox="0 0 1260.000000 231.000000"
   preserveAspectRatio="xMidYMid meet"
   id="svg10"
   sodipodi:docname="essence-logo.svg"
   inkscape:version="0.92.3 (2405546, 2018-03-11)">
  <defs
     id="defs14" />
  <sodipodi:namedview
     pagecolor="#ffffff"
     bordercolor="#666666"
     borderopacity="1"
     objecttolerance="10"
     gridtolerance="10"
     guidetolerance="10"
     inkscape:pageopacity="0"
     inkscape:pageshadow="2"
     inkscape:window-width="1366"
     inkscape:window-height="740"
     id="namedview12"
     showgrid="false"
     inkscape:zoom="1.1010663"
     inkscape:cx="1475.9091"
     inkscape:cy="285.10043"
     inkscape:window-x="0"
     inkscape:window-y="0"
     inkscape:window-maximized="1"
     inkscape:current-layer="svg10" />
  <metadata
     id="metadata2">
Created by potrace 1.15, written by Peter Selinger 2001-2017
<rdf:RDF>
  <cc:Work
     rdf:about="">
    <dc:format>image/svg+xml</dc:format>
    <dc:type
       rdf:resource="http://purl.org/dc/dcmitype/StillImage" />
    <dc:title></dc:title>
  </cc:Work>
</rdf:RDF>
</metadata>
  <g
     transform="translate(0.000000,231.000000) scale(0.100000,-0.100000)"
     fill="#fff"
     stroke="none"
     id="g8"
     style="fill:#fff">
    <path
       d="M3360 2290 c-183 -46 -396 -239 -464 -420 -36 -96 -296 -428 -479 -611 -247 -248 -517 -424 -752 -491 -113 -32 -295 -32 -375 0 -113 46 -186 122 -230 240 -23 60 -37 189 -26 244 6 33 9 36 64 48 256 57 653 271 833 450 61 60 80 86 94 129 36 111 -1 305 -68 355 -42 31 -243 36 -354 8 -169 -43 -328 -130 -485 -266 -80 -69 -206 -213 -261 -297 -32 -48 -32 -49 -88 -49 -64 0 -337 25 -489 45 -102 14 -106 13 -150 -8 -25 -11 -64 -39 -88 -60 -70 -65 -53 -119 59 -185 78 -47 341 -119 502 -138 32 -4 60 -11 63 -15 3 -5 -4 -37 -15 -72 -103 -335 11 -602 307 -714 363 -137 843 -3 1274 356 190 159 412 412 581 663 l72 107 31 -92 c17 -51 58 -157 92 -237 104 -250 132 -358 132 -514 0 -240 -97 -464 -226 -527 -61 -29 -156 -24 -236 13 -79 36 -108 70 -108 123 0 78 79 167 316 359 130 104 156 135 134 161 -18 22 -98 19 -172 -6 -203 -68 -392 -210 -469 -352 -31 -57 -34 -69 -34 -147 0 -72 4 -93 27 -140 79 -160 238 -250 439 -250 277 0 532 191 636 478 70 191 46 332 -127 776 -77 197 -111 327 -112 426 -1 98 15 152 59 201 49 54 112 85 239 114 185 44 214 64 214 148 0 68 -15 87 -92 122 -51 23 -80 29 -148 31 -47 2 -101 -1 -120 -6z m-1575 -262 c-25 -118 -165 -236 -375 -314 -85 -32 -238 -69 -247 -60 -11 11 96 156 167 226 120 118 251 178 393 179 l69 1 -7 -32z"
       id="path4"
       style="fill:#fff" />
    <path
       d="M4540 2277 c-98 -33 -157 -72 -245 -161 -92 -93 -155 -201 -181 -312 -31 -133 -7 -521 52 -819 8 -44 18 -88 20 -97 4 -13 -8 -23 -48 -40 -299 -127 -532 -295 -637 -457 -47 -73 -52 -112 -22 -177 21 -45 58 -76 123 -101 64 -25 305 -24 413 1 262 61 473 179 538 300 20 37 22 55 21 176 0 109 -5 150 -23 215 -13 44 -25 89 -28 100 -4 18 12 25 145 66 l149 46 6 -66 c16 -177 127 -363 281 -467 174 -118 429 -147 648 -74 187 62 349 188 456 352 109 169 231 426 357 754 72 188 106 245 210 351 55 56 79 74 96 71 80 -11 25 -290 -197 -1006 -98 -313 -164 -533 -164 -544 0 -17 41 -6 108 27 113 57 157 113 272 350 109 225 151 286 279 407 194 185 412 288 670 318 55 7 107 10 115 7 19 -7 25 -63 41 -392 20 -392 47 -515 138 -620 32 -36 36 -38 108 -43 90 -5 163 13 259 65 134 73 301 233 421 403 35 50 66 90 69 90 3 0 14 -30 24 -67 69 -240 242 -429 450 -492 141 -43 321 -37 486 15 85 26 219 93 357 177 l92 56 31 -67 c85 -182 227 -266 450 -264 267 2 587 152 958 450 51 40 97 82 102 92 39 73 -28 140 -138 140 -71 0 -116 -16 -173 -63 -287 -234 -438 -334 -573 -379 -95 -32 -146 -35 -201 -9 -75 34 -120 107 -143 233 l-9 47 176 117 c247 164 359 251 491 384 129 128 215 248 256 356 21 57 25 82 22 141 -3 60 -8 79 -34 115 -64 92 -163 110 -346 64 -480 -122 -898 -644 -898 -1123 l0 -74 -162 -80 c-184 -90 -277 -123 -401 -140 -284 -40 -504 113 -563 392 -22 102 -21 285 1 369 36 139 120 249 244 322 58 34 138 62 327 117 100 29 114 43 121 116 7 79 -18 118 -102 160 -52 26 -70 30 -140 29 -66 0 -93 -6 -150 -30 -197 -84 -381 -272 -481 -491 -76 -166 -106 -223 -186 -355 -201 -333 -366 -518 -464 -518 -45 0 -116 71 -157 158 -31 65 -32 70 -31 202 1 115 6 161 38 310 58 276 58 351 1 419 -34 39 -129 56 -275 48 -234 -12 -437 -116 -721 -367 -97 -85 -175 -137 -187 -126 -4 4 26 103 65 219 129 379 125 418 -41 469 -51 16 -95 22 -156 22 -122 -1 -186 -28 -271 -113 -81 -81 -139 -195 -224 -441 -80 -230 -118 -327 -185 -465 -119 -245 -247 -397 -398 -473 -290 -145 -530 -52 -597 230 -16 67 -21 294 -7 315 4 7 66 35 136 63 274 107 538 262 654 383 78 82 119 166 140 290 18 107 7 234 -26 310 -17 39 -25 45 -65 56 -75 18 -252 14 -343 -9 -407 -103 -794 -526 -924 -1009 l-25 -94 -155 -68 c-85 -37 -158 -68 -162 -68 -13 -1 -107 304 -124 400 -19 110 -14 194 17 295 59 192 167 304 372 383 101 39 137 68 137 109 0 94 -201 144 -360 89z m1418 -247 c95 -141 -109 -364 -560 -610 -43 -23 -78 -39 -78 -36 0 15 70 186 100 246 78 156 207 303 325 370 58 33 161 71 180 66 6 -1 20 -17 33 -36z m5432 -304 c-59 -177 -262 -389 -602 -630 -43 -30 -68 -42 -68 -34 0 8 11 46 24 84 99 293 411 647 614 699 l47 12 3 -34 c2 -19 -6 -62 -18 -97z m-7166 -1082 c9 -71 13 -145 10 -162 -7 -35 -64 -91 -124 -122 -64 -33 -153 -51 -275 -56 -156 -7 -170 0 -169 77 1 69 23 110 94 179 67 64 180 134 329 201 94 43 106 47 112 31 3 -9 14 -76 23 -148z"
       id="path6"
       style="fill:#fff" />
  </g>
  <path
     style="fill:#fff;stroke:none;stroke-width:1.0293467px;stroke-linecap:butt;stroke-linejoin:miter;stroke-opacity:1"
     d="m 1227.4368,183.3906 c 18.3371,3.95803 26.4163,-1.51381 33.5834,-13.03263 2.5829,-4.50071 4.419,-16.15047 -2.7936,-20.92653 -8.5977,-5.72627 -20.485,1.22637 -25.5576,3.80921 -12.6304,20.76494 -11.4035,24.77549 -5.2322,30.14995 z"
     id="path10"
     inkscape:connector-curvature="0"
     sodipodi:nodetypes="ccccc" />
</svg>
